<svg xmlns="http://www.w3.org/2000/svg" viewBox="0 0 1254 1254">
  <rect width="1254" height="1254" rx="224" fill="#FAF8F6" />
  <g fill="#111111">
    <path d="M1061.34,943.59l.05-68.03-173.36-.14.02-56.88,240.34-.05.09,160.79c-69.86,38.02-146.88,57.4-226.31,57.16-72.3.35-148.57-12.64-208.5-54.25-29.17-20.25-52.39-46.34-66.26-78.87-27.82-65.21-14.2-139.64,33.5-191.8,81.44-89.06,230.54-100.77,341.7-75.4,45.28,11.17,87.04,28.59,125.73,55.92l-41.17,42.35c-33.38-21.6-68.84-35.45-107.25-42.99-84.16-16.39-203.96-10.31-264.45,58.25-39.59,44.87-42.96,110.95-6.3,158.22,53.91,69.51,170.72,76.67,250.99,66.03,35.37-5.09,68.2-14.41,101.19-30.3Z" />
    <polygon points="520.25 1016.65 125.6 1016.55 125.51 307.59 184.9 224.92 185.02 954.39 520.53 954.66 520.25 1016.65" />
    <path d="M1012.93,512.32l-251.29-.14-41.02,73.11-74.64-.36,134.06-237.76,72.47-129.24,69.58-.36,206.37,367.34-74.45.38-41.08-72.96ZM979.63,451.91l-92.21-163.42-92.37,163.54,184.59-.12Z" />
    <polygon points="575.51 672.08 505.94 836.16 505.78 286.42 325.96 286.38 326.01 217.75 781.22 217.9 741.46 286.35 575.43 286.48 575.51 672.08" />
  </g>
</svg>
